# xmcd CD database file
#
# Track frame offsets:
#	150
#	17376
#	39036
#	55895
#	70574
#	84346
#	100075
#	114432
#	129998
#	146674
#	161466
#	179805
#	198132
#	211972
#	226520
#	246196
#	264517
#	281447
#
# Disc length: 4041 seconds
#
# Revision: 0
# Processed by: cddbd v1.5.2PL0 Copyright (c) Steve Scherf et al.
# Submitted via: CDex 1.70beta2
#
DISCID=e10fc712
DTITLE=Lady Antebellum - Golden Deluxe Edition
DYEAR=2013
DGENRE=Country
TTITLE0=Get To Me
TTITLE1=Goodbye Town
TTITLE2=Nothin' Like The First Time
TTITLE3=Downtown
TTITLE4=Better Off Now (That You're Gone)
TTITLE5=It Ain't Pretty
TTITLE6=Can't Stand The rain
TTITLE7=Golden
TTITLE8=Long Teenage Goodbye
TTITLE9=All For Love
TTITLE10=Better Man
TTITLE11=Generation Away
TTITLE12=Compass
TTITLE13=And The Radio Played
TTITLE14=Life As We Know It
TTITLE15=Need You Now (Live Session Performance)
TTITLE16=Just A Kiss (Backstage Acoustic Session)
TTITLE17=I Run To You  (Live Session Performance)
EXTD=YEAR: 2013
EXTT0=
EXTT1=
EXTT2=
EXTT3=
EXTT4=
EXTT5=
EXTT6=
EXTT7=
EXTT8=
EXTT9=
EXTT10=
EXTT11=
EXTT12=
EXTT13=
EXTT14=
EXTT15=
EXTT16=
EXTT17=
PLAYORDER=
